<mxfile host="app.diagrams.net" modified="2023-03-07T15:34:19.977Z" agent="5.0 (Windows NT 10.0; Win64; x64) AppleWebKit/537.36 (KHTML, like Gecko) Chrome/110.0.0.0 Safari/537.36 Edg/110.0.1587.63" etag="o0DpayAsb2DIAgPJ6LKK" version="21.0.2" type="github">
  <diagram name="第 1 页" id="QfBTrQFo4jsn0Jn8oBfZ">
    <mxGraphModel dx="1050" dy="558" grid="1" gridSize="10" guides="1" tooltips="1" connect="1" arrows="1" fold="1" page="1" pageScale="1" pageWidth="827" pageHeight="1169" math="0" shadow="0">
      <root>
        <mxCell id="0" />
        <mxCell id="1" parent="0" />
        <mxCell id="zfch9v7HI0ur41LocFT6-1" value="" style="whiteSpace=wrap;html=1;aspect=fixed;" vertex="1" parent="1">
          <mxGeometry x="50" y="80" width="80" height="80" as="geometry" />
        </mxCell>
        <mxCell id="zfch9v7HI0ur41LocFT6-2" value="" style="shape=parallelogram;perimeter=parallelogramPerimeter;whiteSpace=wrap;html=1;fixedSize=1;" vertex="1" parent="1">
          <mxGeometry x="330" y="120" width="120" height="60" as="geometry" />
        </mxCell>
        <mxCell id="zfch9v7HI0ur41LocFT6-3" value="" style="shape=xor;whiteSpace=wrap;html=1;" vertex="1" parent="1">
          <mxGeometry x="150" y="250" width="60" height="80" as="geometry" />
        </mxCell>
        <mxCell id="zfch9v7HI0ur41LocFT6-4" value="" style="shape=callout;whiteSpace=wrap;html=1;perimeter=calloutPerimeter;" vertex="1" parent="1">
          <mxGeometry x="220" y="250" width="120" height="80" as="geometry" />
        </mxCell>
        <mxCell id="zfch9v7HI0ur41LocFT6-5" value="" style="shape=document;whiteSpace=wrap;html=1;boundedLbl=1;" vertex="1" parent="1">
          <mxGeometry x="90" y="210" width="120" height="80" as="geometry" />
        </mxCell>
        <mxCell id="zfch9v7HI0ur41LocFT6-6" value="" style="shape=callout;whiteSpace=wrap;html=1;perimeter=calloutPerimeter;" vertex="1" parent="1">
          <mxGeometry x="110" y="380" width="120" height="80" as="geometry" />
        </mxCell>
        <mxCell id="zfch9v7HI0ur41LocFT6-7" value="" style="shape=dataStorage;whiteSpace=wrap;html=1;fixedSize=1;" vertex="1" parent="1">
          <mxGeometry x="590" y="190" width="100" height="80" as="geometry" />
        </mxCell>
        <mxCell id="zfch9v7HI0ur41LocFT6-8" value="" style="shape=cylinder3;whiteSpace=wrap;html=1;boundedLbl=1;backgroundOutline=1;size=15;" vertex="1" parent="1">
          <mxGeometry x="580" y="50" width="60" height="80" as="geometry" />
        </mxCell>
        <mxCell id="zfch9v7HI0ur41LocFT6-9" value="" style="shape=step;perimeter=stepPerimeter;whiteSpace=wrap;html=1;fixedSize=1;" vertex="1" parent="1">
          <mxGeometry x="450" y="360" width="120" height="80" as="geometry" />
        </mxCell>
        <mxCell id="zfch9v7HI0ur41LocFT6-10" value="" style="triangle;whiteSpace=wrap;html=1;" vertex="1" parent="1">
          <mxGeometry x="260" y="300" width="60" height="80" as="geometry" />
        </mxCell>
      </root>
    </mxGraphModel>
  </diagram>
</mxfile>
